<svg width="32" height="32" viewBox="0 0 32 32" fill="none" xmlns="http://www.w3.org/2000/svg">
<g clip-path="url(#clip0_302_98)">
<path d="M25.3023 13.8418V27.5349C25.3023 27.9258 25.2253 28.3129 25.0757 28.674C24.9261 29.0352 24.7068 29.3633 24.4304 29.6397C24.154 29.9162 23.8259 30.1354 23.4647 30.285C23.1035 30.4346 22.7165 30.5116 22.3256 30.5116H4.46509C3.6756 30.5116 2.91846 30.198 2.36021 29.6397C1.80196 29.0815 1.48834 28.3244 1.48834 27.5349V9.67441C1.48834 8.88492 1.80196 8.12778 2.36021 7.56953C2.91846 7.01128 3.6756 6.69766 4.46509 6.69766H16.9287" stroke="black" stroke-width="2" stroke-linecap="round" stroke-linejoin="round"/>
<path d="M30.9537 1.13489C30.845 1.01541 30.7131 0.919207 30.5661 0.852111C30.4192 0.785015 30.2601 0.748414 30.0986 0.744519C29.9371 0.740623 29.7765 0.769515 29.6264 0.829448C29.4764 0.889382 29.3401 0.979112 29.2257 1.09322L28.3051 2.00931C28.1936 2.12095 28.1309 2.27232 28.1309 2.43015C28.1309 2.58798 28.1936 2.73935 28.3051 2.85098L29.1491 3.6934C29.2044 3.74898 29.2701 3.79308 29.3425 3.82317C29.4149 3.85327 29.4926 3.86876 29.571 3.86876C29.6494 3.86876 29.7271 3.85327 29.7995 3.82317C29.8719 3.79308 29.9376 3.74898 29.993 3.6934L30.8904 2.80038C31.3444 2.34717 31.3868 1.60894 30.9537 1.13489ZM26.4439 3.86977L13.0099 17.28C12.9284 17.3611 12.8692 17.4618 12.838 17.5725L12.2166 19.4233C12.2017 19.4735 12.2006 19.5268 12.2135 19.5776C12.2264 19.6283 12.2528 19.6747 12.2898 19.7117C12.3269 19.7487 12.3732 19.7751 12.424 19.788C12.4747 19.8009 12.528 19.7998 12.5783 19.7849L14.4276 19.1635C14.5382 19.1323 14.6389 19.0731 14.72 18.9916L28.1303 5.5561C28.2543 5.43071 28.3239 5.26143 28.3239 5.08503C28.3239 4.90863 28.2543 4.73936 28.1303 4.61396L27.3898 3.86977C27.2642 3.74458 27.0942 3.67427 26.9169 3.67427C26.7396 3.67427 26.5695 3.74458 26.4439 3.86977Z" fill="black"/>
</g>
<defs>
<clipPath id="clip0_302_98">
<rect width="32" height="32" fill="white"/>
</clipPath>
</defs>
</svg>
