<svg width="34" height="34" viewBox="0 0 34 34" fill="none" xmlns="http://www.w3.org/2000/svg">
<path d="M14 3C11.6266 3 9.30655 3.70379 7.33316 5.02236C5.35977 6.34094 3.8217 8.21508 2.91345 10.4078C2.0052 12.6005 1.76756 15.0133 2.23058 17.3411C2.6936 19.6689 3.83649 21.807 5.51472 23.4853C7.19295 25.1635 9.33115 26.3064 11.6589 26.7694C13.9867 27.2324 16.3995 26.9948 18.5922 26.0865C20.7849 25.1783 22.6591 23.6402 23.9776 21.6668C25.2962 19.6934 26 17.3734 26 15C25.9998 11.8175 24.7355 8.76533 22.4851 6.51494C20.2347 4.26455 17.1825 3.0002 14 3V3Z" stroke="#1E195B" stroke-width="4" stroke-miterlimit="10"/>
<path d="M23 24L31 32" stroke="#1E195B" stroke-width="4" stroke-miterlimit="10" stroke-linecap="round"/>
</svg>
