<svg width="32" height="32" viewBox="0 0 32 32" fill="none" xmlns="http://www.w3.org/2000/svg">
<path d="M5.9826 5.9826L7.37391 28.2435C7.44 29.5297 8.37565 30.4696 9.6 30.4696H22.4C23.6292 30.4696 24.5475 29.5297 24.6261 28.2435L26.0174 5.9826" stroke="black" stroke-width="2" stroke-linecap="round" stroke-linejoin="round"/>
<path d="M3.75653 5.9826H28.2435H3.75653Z" fill="black"/>
<path d="M3.75653 5.9826H28.2435" stroke="black" stroke-width="2" stroke-miterlimit="10" stroke-linecap="round"/>
<path d="M21.0087 10.4348L20.4522 26.0174M11.5479 5.98261V3.2C11.5472 2.98057 11.59 2.76317 11.6736 2.56032C11.7573 2.35747 11.8803 2.17317 12.0354 2.018C12.1906 1.86284 12.3749 1.73989 12.5777 1.65621C12.7806 1.57254 12.998 1.52979 13.2174 1.53043H18.7826C19.0021 1.52979 19.2195 1.57254 19.4223 1.65621C19.6252 1.73989 19.8095 1.86284 19.9646 2.018C20.1198 2.17317 20.2427 2.35747 20.3264 2.56032C20.4101 2.76317 20.4528 2.98057 20.4522 3.2V5.98261H11.5479ZM16 10.4348V26.0174V10.4348ZM10.9913 10.4348L11.5479 26.0174L10.9913 10.4348Z" stroke="black" stroke-width="2" stroke-linecap="round" stroke-linejoin="round"/>
</svg>
