<svg width="32" height="32" viewBox="0 0 32 32" fill="none" xmlns="http://www.w3.org/2000/svg">
<path d="M23.7577 19.4469L29.1592 23.249C29.3183 23.3197 29.4925 23.3496 29.6661 23.3358C29.8396 23.3221 30.007 23.2652 30.153 23.1704C30.299 23.0755 30.4189 22.9457 30.502 22.7927C30.585 22.6397 30.6286 22.4683 30.6286 22.2942V9.7058C30.6286 9.5317 30.585 9.36036 30.502 9.20735C30.4189 9.05434 30.299 8.9245 30.153 8.82964C30.007 8.73478 29.8396 8.6779 29.6661 8.66417C29.4925 8.65044 29.3183 8.6803 29.1592 8.75103L23.7577 12.5532C23.6207 12.6496 23.509 12.7775 23.4318 12.9262C23.3546 13.0748 23.3143 13.2399 23.3143 13.4074V18.5927C23.3143 18.7602 23.3546 18.9252 23.4318 19.0739C23.509 19.2225 23.6207 19.3504 23.7577 19.4469V19.4469Z" stroke="black" stroke-width="2" stroke-linecap="round" stroke-linejoin="round"/>
<path d="M16.7836 24.3592H4.76732C3.86746 24.3566 3.00519 23.998 2.3689 23.3617C1.7326 22.7254 1.37398 21.8631 1.3714 20.9633V11.0367C1.37398 10.1369 1.7326 9.2746 2.3689 8.6383C3.00519 8.00201 3.86746 7.64339 4.76732 7.64081H16.815C17.7065 7.64356 18.5607 7.99893 19.1911 8.62931C19.8214 9.2597 20.1768 10.1139 20.1796 11.0054V20.9633C20.177 21.8631 19.8184 22.7254 19.1821 23.3617C18.5458 23.998 17.6835 24.3566 16.7836 24.3592Z" stroke="black" stroke-width="2" stroke-miterlimit="10"/>
</svg>
